<?xml version="1.0" encoding="UTF-8"?>
<!DOCTYPE svg PUBLIC "-//W3C//DTD SVG 1.1//EN" "http://www.w3.org/Graphics/SVG/1.1/DTD/svg11.dtd">
<svg xmlns="http://www.w3.org/2000/svg" version="1.1" width="119px" height="52px" style="shape-rendering:geometricPrecision; text-rendering:geometricPrecision; image-rendering:optimizeQuality; fill-rule:evenodd; clip-rule:evenodd" xmlns:xlink="http://www.w3.org/1999/xlink">
<g><path style="opacity:1" fill="#cad3e1" d="M -0.5,-0.5 C 39.1667,-0.5 78.8333,-0.5 118.5,-0.5C 118.5,16.8333 118.5,34.1667 118.5,51.5C 78.8333,51.5 39.1667,51.5 -0.5,51.5C -0.5,34.1667 -0.5,16.8333 -0.5,-0.5 Z"/></g>
<g><path style="opacity:1" fill="#003888" d="M 0.5,0.5 C 39.5,0.5 78.5,0.5 117.5,0.5C 117.5,17.1667 117.5,33.8333 117.5,50.5C 78.5,50.5 39.5,50.5 0.5,50.5C 0.5,33.8333 0.5,17.1667 0.5,0.5 Z"/></g>
<g><path style="opacity:1" fill="#06488f" d="M 1.5,1.5 C 39.8333,1.5 78.1667,1.5 116.5,1.5C 116.5,17.5 116.5,33.5 116.5,49.5C 78.1667,49.5 39.8333,49.5 1.5,49.5C 1.5,33.5 1.5,17.5 1.5,1.5 Z"/></g>
<g><path style="opacity:1" fill="#ccd5e4" d="M 103.5,42.5 C 101.58,43.9405 99.9134,43.6071 98.5,41.5C 98.6667,41.1667 98.8333,40.8333 99,40.5C 100.11,42.0368 101.61,42.7035 103.5,42.5 Z"/></g>
<g><path style="opacity:1" fill="#8e9fc1" d="M 21.5,35.5 C 22.3138,37.631 22.8138,39.9644 23,42.5C 23.1862,39.9644 23.6862,37.631 24.5,35.5C 24.2317,38.1194 24.565,40.6194 25.5,43C 23.8333,43.6667 22.1667,43.6667 20.5,43C 21.435,40.6194 21.7683,38.1194 21.5,35.5 Z"/></g>
<g><path style="opacity:1" fill="#d7dee9" d="M 50.5,33.5 C 54.2407,32.5985 56.2407,33.9319 56.5,37.5C 54.5,37.5 52.5,37.5 50.5,37.5C 50.33,38.8221 50.6634,39.9887 51.5,41C 53.4242,41.1792 55.0909,41.3459 56.5,41.5C 50.1956,44.7122 47.6956,42.7122 49,35.5C 49.7172,34.9558 50.2172,34.2891 50.5,33.5 Z"/></g>
<g><path style="opacity:1" fill="#c2ccde" d="M 38.5,34.5 C 39.6009,33.4017 40.9343,33.235 42.5,34C 41.3966,35.6804 41.7299,37.1804 43.5,38.5C 45.2701,37.1804 45.6034,35.6804 44.5,34C 45.8333,33.3333 47.1667,33.3333 48.5,34C 46.2932,36.9088 44.4598,40.0754 43,43.5C 41.5765,40.3522 40.0765,37.3522 38.5,34.5 Z"/></g>
<g><path style="opacity:1" fill="#dde3ed" d="M 103.5,42.5 C 102.7,40.3175 101.2,38.6508 99,37.5C 98.3162,36.2161 98.4829,35.0495 99.5,34C 101.259,33.2025 102.926,33.3691 104.5,34.5C 103.313,34.5536 101.98,34.8869 100.5,35.5C 102.36,36.9387 104.027,38.6053 105.5,40.5C 105.145,41.5223 104.478,42.189 103.5,42.5 Z"/></g>
<g><path style="opacity:1" fill="#dde2ec" d="M 67.5,33.5 C 69.288,33.2148 70.9547,33.5481 72.5,34.5C 71.3131,34.5536 69.9798,34.8869 68.5,35.5C 70.3603,36.9387 72.027,38.6053 73.5,40.5C 71.4815,43.9291 69.1482,44.2624 66.5,41.5C 66.6667,41.1667 66.8333,40.8333 67,40.5C 68.3629,42.7843 69.8629,42.951 71.5,41C 67.5641,39.6295 66.2308,37.1295 67.5,33.5 Z"/></g>
<g><path style="opacity:1" fill="#d5dbe8" d="M 91.5,34.5 C 94.676,32.7271 96.3427,33.7271 96.5,37.5C 94.396,37.2011 92.396,37.5344 90.5,38.5C 91.7549,40.7802 93.7549,41.9468 96.5,42C 92.1501,44.696 89.4834,43.5294 88.5,38.5C 88.7538,36.5828 89.7538,35.2495 91.5,34.5 Z"/></g>
<g><path style="opacity:1" fill="#043888" d="M 91.5,34.5 C 92.675,34.281 93.675,34.6143 94.5,35.5C 92.9483,36.7979 91.9483,36.4646 91.5,34.5 Z"/></g>
<g><path style="opacity:1" fill="#d7deea" d="M 83.5,31.5 C 84.6597,32.6114 85.993,33.6114 87.5,34.5C 86.675,35.3857 85.675,35.719 84.5,35.5C 84.5,37.5 84.5,39.5 84.5,41.5C 88.2762,41.4692 88.4429,42.1359 85,43.5C 84.228,43.3552 83.5613,43.0219 83,42.5C 82.7305,39.7759 82.2305,37.1092 81.5,34.5C 82.1925,33.4822 82.8592,32.4822 83.5,31.5 Z"/></g>
<g><path style="opacity:1" fill="#dae0eb" d="M 59.5,33.5 C 61.4584,33.908 63.4584,34.2413 65.5,34.5C 64.3112,35.4287 62.9778,35.762 61.5,35.5C 61.0423,38.3938 61.709,40.8938 63.5,43C 61.5,43.6667 59.5,43.6667 57.5,43C 58.6582,41.9914 59.3248,40.6581 59.5,39C 58.9179,36.9634 58.9179,35.1301 59.5,33.5 Z"/></g>
<g><path style="opacity:1" fill="#0c438d" d="M 51.5,34.5 C 52.675,34.281 53.675,34.6143 54.5,35.5C 53.277,36.6139 51.9437,36.7805 50.5,36C 51.056,35.6174 51.3893,35.1174 51.5,34.5 Z"/></g>
<g><path style="opacity:1" fill="#c2ccde" d="M 25.5,34.5 C 26.8845,33.1991 28.3845,33.1991 30,34.5C 30.2178,37.4262 30.7178,40.2595 31.5,43C 29.8333,43.6667 28.1667,43.6667 26.5,43C 28.4574,40.8788 28.9574,38.3788 28,35.5C 27.3292,34.7476 26.4959,34.4142 25.5,34.5 Z"/></g>
<g><path style="opacity:1" fill="#dee3ed" d="M 75.5,33.5 C 76.5,33.5 77.5,33.5 78.5,33.5C 78.2161,36.7766 78.5495,39.9433 79.5,43C 78.1667,43.6667 76.8333,43.6667 75.5,43C 76.7003,39.8689 76.7003,36.7023 75.5,33.5 Z"/></g>
<g><path style="opacity:1" fill="#d6dde9" d="M 33.5,33.5 C 34.5,33.5 35.5,33.5 36.5,33.5C 36.2161,36.7766 36.5495,39.9433 37.5,43C 36.1667,43.6667 34.8333,43.6667 33.5,43C 34.7003,39.8689 34.7003,36.7023 33.5,33.5 Z"/></g>
<g><path style="opacity:1" fill="#f9fafc" d="M 24.5,35.5 C 23.6862,37.631 23.1862,39.9644 23,42.5C 22.8138,39.9644 22.3138,37.631 21.5,35.5C 22.5,32.8333 23.5,32.8333 24.5,35.5 Z"/></g>
<g><path style="opacity:1" fill="#cad2e2" d="M 107.5,33.5 C 108.5,33.5 109.5,33.5 110.5,33.5C 110.216,36.7766 110.549,39.9433 111.5,43C 109.833,43.6667 108.167,43.6667 106.5,43C 107.658,41.9914 108.325,40.6581 108.5,39C 108.304,37.1216 107.971,35.2883 107.5,33.5 Z"/></g>
<g><path style="opacity:1" fill="#b8c3d8" d="M 16.5,41.5 C 17.0555,37.0029 16.3888,32.8362 14.5,29C 16.1667,28.3333 17.8333,28.3333 19.5,29C 18.703,32.7454 18.203,36.5787 18,40.5C 17.6174,41.056 17.1174,41.3893 16.5,41.5 Z"/></g>
<g><path style="opacity:1" fill="#ced6e4" d="M 16.5,41.5 C 13.1614,44.312 9.9947,43.9787 7,40.5C 7.05188,36.3436 6.21854,32.5103 4.5,29C 6.5,28.3333 8.5,28.3333 10.5,29C 9.20234,33.1179 9.20234,37.2846 10.5,41.5C 12.4816,42.6225 14.4816,42.6225 16.5,41.5 Z"/></g>
<g><path style="opacity:1" fill="#b9c4d9" d="M 34.5,28.5 C 36.337,28.6395 36.6704,29.3061 35.5,30.5C 34.7025,30.0431 34.3691,29.3764 34.5,28.5 Z"/></g>
<g><path style="opacity:1" fill="#dce2eb" d="M 78.5,26.5 C 80.337,26.6395 80.6704,27.3061 79.5,28.5C 78.7025,28.0431 78.3691,27.3764 78.5,26.5 Z"/></g>
<g><path style="opacity:1" fill="#ccd3e3" d="M 15.5,23.5 C 17.337,23.6395 17.6704,24.3061 16.5,25.5C 15.7025,25.0431 15.3691,24.3764 15.5,23.5 Z"/></g>
<g><path style="opacity:1" fill="#8b9dbf" d="M 73.5,14.5 C 74.3138,16.631 74.8138,18.9644 75,21.5C 75.4966,19.1902 75.6633,16.8568 75.5,14.5C 76.21,16.8927 76.8767,19.3927 77.5,22C 75.8333,22.6667 74.1667,22.6667 72.5,22C 73.435,19.6194 73.7683,17.1194 73.5,14.5 Z"/></g>
<g><path style="opacity:1" fill="#ced6e4" d="M 60.5,17.5 C 59.7222,18.1556 59.0556,18.9889 58.5,20C 58.8361,21.0299 59.5028,21.5299 60.5,21.5C 59.4324,22.4345 58.099,22.7678 56.5,22.5C 55.7564,19.0504 57.0897,17.3838 60.5,17.5 Z"/></g>
<g><path style="opacity:1" fill="#d6dde9" d="M 38.5,17.5 C 40.1157,15.5842 39.7823,14.0842 37.5,13C 38.5,12.3333 39.5,12.3333 40.5,13C 40.9089,15.947 41.9089,18.6137 43.5,21C 42.9747,21.6924 42.3081,22.1924 41.5,22.5C 39.2727,21.9475 36.9393,21.9475 34.5,22.5C 33.7564,19.0504 35.0897,17.3838 38.5,17.5 Z"/></g>
<g><path style="opacity:1" fill="#dee3ed" d="M 6.5,19.5 C 8.33702,19.6395 8.67036,20.3061 7.5,21.5C 6.70245,21.0431 6.36912,20.3764 6.5,19.5 Z"/></g>
<g><path style="opacity:1" fill="#ebeef4" d="M 109.5,19.5 C 111.337,19.6395 111.67,20.3061 110.5,21.5C 109.702,21.0431 109.369,20.3764 109.5,19.5 Z"/></g>
<g><path style="opacity:1" fill="#244790" d="M 60.5,17.5 C 61.6857,18.7054 61.6857,20.0387 60.5,21.5C 59.5028,21.5299 58.8361,21.0299 58.5,20C 59.0556,18.9889 59.7222,18.1556 60.5,17.5 Z"/></g>
<g><path style="opacity:1" fill="#0a3d8b" d="M 38.5,17.5 C 39.404,18.209 39.7373,19.209 39.5,20.5C 35.9952,20.3059 35.6618,19.3059 38.5,17.5 Z"/></g>
<g><path style="opacity:1" fill="#dbe1eb" d="M 80.5,12.5 C 82.604,12.2011 84.604,12.5344 86.5,13.5C 84.7219,13.5693 82.8886,13.9026 81,14.5C 80.3333,16.1667 80.3333,17.8333 81,19.5C 82.9942,20.2792 84.8276,20.6126 86.5,20.5C 83.959,23.1003 81.459,23.1003 79,20.5C 78.2815,17.5929 78.7815,14.9262 80.5,12.5 Z"/></g>
<g><path style="opacity:1" fill="#afbbd3" d="M 67.5,12.5 C 68.4959,12.4142 69.3292,12.7476 70,13.5C 70.2178,16.4262 70.7178,19.2595 71.5,22C 69.8333,22.6667 68.1667,22.6667 66.5,22C 67.4505,18.9433 67.7839,15.7766 67.5,12.5 Z"/></g>
<g><path style="opacity:1" fill="#e1e6ef" d="M 60.5,21.5 C 61.6857,20.0387 61.6857,18.7054 60.5,17.5C 61.2245,12.7671 60.0579,12.4338 57,16.5C 57.3902,12.7131 59.3902,11.7131 63,13.5C 63.2178,16.4262 63.7178,19.2595 64.5,22C 63.1807,22.195 61.8474,22.0283 60.5,21.5 Z"/></g>
<g><path style="opacity:1" fill="#bfc9dc" d="M 35.5,13.5 C 36.7125,14.4971 36.5458,15.4971 35,16.5C 34.5304,15.4232 34.6971,14.4232 35.5,13.5 Z"/></g>
<g><path style="opacity:1" fill="#f9fafc" d="M 75.5,14.5 C 75.6633,16.8568 75.4966,19.1902 75,21.5C 74.8138,18.9644 74.3138,16.631 73.5,14.5C 73.0825,13.7784 72.4158,13.2784 71.5,13C 73.4628,12.1558 74.7961,12.6558 75.5,14.5 Z"/></g>
<g><path style="opacity:1" fill="#edf0f5" d="M 48.5,13.5 C 50.4888,12.1134 52.3221,12.4468 54,14.5C 54.8201,16.728 54.4868,18.728 53,20.5C 53.3371,16.8173 51.8371,14.484 48.5,13.5 Z"/></g>
<g><path style="opacity:1" fill="#e2e6ef" d="M 89.5,12.5 C 91.1674,15.2615 92.1674,18.4281 92.5,22C 91.1667,22.6667 89.8333,22.6667 88.5,22C 89.4505,18.9433 89.7839,15.7766 89.5,12.5 Z"/></g>
<g><path style="opacity:1" fill="#dce2ec" d="M 48.5,13.5 C 46.4159,17.6345 47.4159,20.4678 51.5,22C 49.5273,22.4955 47.5273,22.6621 45.5,22.5C 45.8047,17.2384 45.4714,12.0717 44.5,7C 45.4162,6.62576 46.2496,6.12576 47,5.5C 47.1829,8.36469 47.6829,11.0314 48.5,13.5 Z"/></g>
<g><path style="opacity:1" fill="#cfd6e5" d="M 26.5,6.5 C 28.1439,6.28649 29.6439,6.61983 31,7.5C 31.6667,8.16667 31.6667,8.83333 31,9.5C 28.7997,8.00988 26.9664,8.34321 25.5,10.5C 28.2905,12.5644 30.6238,15.0644 32.5,18C 31.2141,21.9764 28.5474,23.3097 24.5,22C 23.4829,20.9505 23.3162,19.7839 24,18.5C 26.005,22.464 27.8383,22.464 29.5,18.5C 27.2301,16.2031 25.2301,13.7031 23.5,11C 24.3146,9.35659 25.3146,7.85659 26.5,6.5 Z"/></g>
</svg>
