<?xml version="1.0" encoding="UTF-8"?>
<!DOCTYPE svg PUBLIC "-//W3C//DTD SVG 1.1//EN" "http://www.w3.org/Graphics/SVG/1.1/DTD/svg11.dtd">
<svg xmlns="http://www.w3.org/2000/svg" version="1.1" width="500px" height="550px" style="shape-rendering:geometricPrecision; text-rendering:geometricPrecision; image-rendering:optimizeQuality; fill-rule:evenodd; clip-rule:evenodd" xmlns:xlink="http://www.w3.org/1999/xlink">
<g><path style="opacity:0.979" fill="#01609b" d="M 56.5,57.5 C 77.1667,57.5 97.8333,57.5 118.5,57.5C 118.5,78.5 118.5,99.5 118.5,120.5C 97.8333,120.5 77.1667,120.5 56.5,120.5C 56.5,99.5 56.5,78.5 56.5,57.5 Z"/></g>
<g><path style="opacity:0.98" fill="#6cb7d3" d="M 121.5,57.5 C 142.167,57.5 162.833,57.5 183.5,57.5C 183.5,78.5 183.5,99.5 183.5,120.5C 162.833,120.5 142.167,120.5 121.5,120.5C 121.5,99.5 121.5,78.5 121.5,57.5 Z"/></g>
<g><path style="opacity:0.98" fill="#989998" d="M 186.5,57.5 C 207.167,57.5 227.833,57.5 248.5,57.5C 248.5,78.5 248.5,99.5 248.5,120.5C 227.833,120.5 207.167,120.5 186.5,120.5C 186.5,99.5 186.5,78.5 186.5,57.5 Z"/></g>
<g><path style="opacity:0.979" fill="#cccccb" d="M 251.5,57.5 C 272.167,57.5 292.833,57.5 313.5,57.5C 313.5,78.5 313.5,99.5 313.5,120.5C 292.833,120.5 272.167,120.5 251.5,120.5C 251.5,99.5 251.5,78.5 251.5,57.5 Z"/></g>
<g><path style="opacity:0.98" fill="#01609b" d="M 316.5,57.5 C 337.167,57.5 357.833,57.5 378.5,57.5C 378.5,78.5 378.5,99.5 378.5,120.5C 357.833,120.5 337.167,120.5 316.5,120.5C 316.5,99.5 316.5,78.5 316.5,57.5 Z"/></g>
<g><path style="opacity:0.979" fill="#6cb7d3" d="M 381.5,57.5 C 402.167,57.5 422.833,57.5 443.5,57.5C 443.5,78.5 443.5,99.5 443.5,120.5C 422.833,120.5 402.167,120.5 381.5,120.5C 381.5,99.5 381.5,78.5 381.5,57.5 Z"/></g>
<g><path style="opacity:0.98" fill="#01609b" d="M 56.5,122.5 C 77.1667,122.5 97.8333,122.5 118.5,122.5C 118.5,143.5 118.5,164.5 118.5,185.5C 97.8333,185.5 77.1667,185.5 56.5,185.5C 56.5,164.5 56.5,143.5 56.5,122.5 Z"/></g>
<g><path style="opacity:0.981" fill="#6cb7d3" d="M 186.5,122.5 C 207.167,122.5 227.833,122.5 248.5,122.5C 248.5,143.5 248.5,164.5 248.5,185.5C 227.833,185.5 207.167,185.5 186.5,185.5C 186.5,164.5 186.5,143.5 186.5,122.5 Z"/></g>
<g><path style="opacity:0.98" fill="#989998" d="M 381.5,122.5 C 402.167,122.5 422.833,122.5 443.5,122.5C 443.5,143.5 443.5,164.5 443.5,185.5C 422.833,185.5 402.167,185.5 381.5,185.5C 381.5,164.5 381.5,143.5 381.5,122.5 Z"/></g>
<g><path style="opacity:0.979" fill="#6cb7d3" d="M 56.5,187.5 C 77.1667,187.5 97.8333,187.5 118.5,187.5C 118.5,208.5 118.5,229.5 118.5,250.5C 97.8333,250.5 77.1667,250.5 56.5,250.5C 56.5,229.5 56.5,208.5 56.5,187.5 Z"/></g>
<g><path style="opacity:0.98" fill="#01609b" d="M 186.5,187.5 C 207.167,187.5 227.833,187.5 248.5,187.5C 248.5,208.5 248.5,229.5 248.5,250.5C 227.833,250.5 207.167,250.5 186.5,250.5C 186.5,229.5 186.5,208.5 186.5,187.5 Z"/></g>
<g><path style="opacity:0.979" fill="#01609b" d="M 381.5,187.5 C 402.167,187.5 422.833,187.5 443.5,187.5C 443.5,208.5 443.5,229.5 443.5,250.5C 422.833,250.5 402.167,250.5 381.5,250.5C 381.5,229.5 381.5,208.5 381.5,187.5 Z"/></g>
<g><path style="opacity:0.98" fill="#01609b" d="M 56.5,253.5 C 77.1667,253.5 97.8333,253.5 118.5,253.5C 118.5,274.5 118.5,295.5 118.5,316.5C 97.8333,316.5 77.1667,316.5 56.5,316.5C 56.5,295.5 56.5,274.5 56.5,253.5 Z"/></g>
<g><path style="opacity:0.981" fill="#01609b" d="M 186.5,253.5 C 207.167,253.5 227.833,253.5 248.5,253.5C 248.5,274.5 248.5,295.5 248.5,316.5C 227.833,316.5 207.167,316.5 186.5,316.5C 186.5,295.5 186.5,274.5 186.5,253.5 Z"/></g>
<g><path style="opacity:0.98" fill="#01609b" d="M 381.5,253.5 C 402.167,253.5 422.833,253.5 443.5,253.5C 443.5,274.5 443.5,295.5 443.5,316.5C 422.833,316.5 402.167,316.5 381.5,316.5C 381.5,295.5 381.5,274.5 381.5,253.5 Z"/></g>
<g><path style="opacity:0.979" fill="#01609b" d="M 56.5,318.5 C 77.1667,318.5 97.8333,318.5 118.5,318.5C 118.5,339.5 118.5,360.5 118.5,381.5C 97.8333,381.5 77.1667,381.5 56.5,381.5C 56.5,360.5 56.5,339.5 56.5,318.5 Z"/></g>
<g><path style="opacity:0.98" fill="#01609b" d="M 121.5,318.5 C 142.167,318.5 162.833,318.5 183.5,318.5C 183.5,339.5 183.5,360.5 183.5,381.5C 162.833,381.5 142.167,381.5 121.5,381.5C 121.5,360.5 121.5,339.5 121.5,318.5 Z"/></g>
<g><path style="opacity:0.98" fill="#01609b" d="M 186.5,318.5 C 207.167,318.5 227.833,318.5 248.5,318.5C 248.5,339.5 248.5,360.5 248.5,381.5C 227.833,381.5 207.167,381.5 186.5,381.5C 186.5,360.5 186.5,339.5 186.5,318.5 Z"/></g>
<g><path style="opacity:0.979" fill="#989998" d="M 251.5,318.5 C 272.167,318.5 292.833,318.5 313.5,318.5C 313.5,339.5 313.5,360.5 313.5,381.5C 292.833,381.5 272.167,381.5 251.5,381.5C 251.5,360.5 251.5,339.5 251.5,318.5 Z"/></g>
<g><path style="opacity:0.98" fill="#01609b" d="M 316.5,318.5 C 337.167,318.5 357.833,318.5 378.5,318.5C 378.5,339.5 378.5,360.5 378.5,381.5C 357.833,381.5 337.167,381.5 316.5,381.5C 316.5,360.5 316.5,339.5 316.5,318.5 Z"/></g>
<g><path style="opacity:0.979" fill="#01609b" d="M 381.5,318.5 C 402.167,318.5 422.833,318.5 443.5,318.5C 443.5,339.5 443.5,360.5 443.5,381.5C 422.833,381.5 402.167,381.5 381.5,381.5C 381.5,360.5 381.5,339.5 381.5,318.5 Z"/></g>
<g><path style="opacity:0.921" fill="#01609b" d="M 172.5,443.5 C 179.361,442.965 186.028,443.798 192.5,446C 196,448.167 198.833,451 201,454.5C 201.72,456.112 201.554,457.612 200.5,459C 196.927,460.371 193.427,461.871 190,463.5C 185.533,453.34 179.199,452.006 171,459.5C 167.271,468.006 167.771,476.173 172.5,484C 180.921,488.528 186.755,486.362 190,477.5C 194,478.833 198,480.167 202,481.5C 199.08,493.161 191.413,498.495 179,497.5C 161.947,496.798 153.447,487.798 153.5,470.5C 153.322,456.71 159.656,447.71 172.5,443.5 Z"/></g>
<g><path style="opacity:0.927" fill="#01609b" d="M 228.5,443.5 C 248.851,441.191 259.851,450.191 261.5,470.5C 259.836,491.518 248.502,500.351 227.5,497C 215.216,492.638 209.216,483.805 209.5,470.5C 209.357,456.683 215.69,447.683 228.5,443.5 Z M 233.5,454.5 C 242.986,455.41 247.319,460.744 246.5,470.5C 246.659,475.189 245.493,479.522 243,483.5C 230.749,488.775 224.582,484.609 224.5,471C 223.778,463.265 226.778,457.765 233.5,454.5 Z"/></g>
<g><path style="opacity:0.929" fill="#01609b" d="M 67.5,445.5 C 72.5673,444.176 77.734,444.176 83,445.5C 86.6836,457.907 90.5169,470.24 94.5,482.5C 98.493,470.187 102.493,457.854 106.5,445.5C 111.467,444.338 116.467,444.171 121.5,445C 115.278,460.997 109.445,477.164 104,493.5C 103.477,495.223 102.477,496.556 101,497.5C 95.8369,496.904 90.6702,496.238 85.5,495.5C 79.6668,478.659 73.6668,461.992 67.5,445.5 Z"/></g>
<g><path style="opacity:0.912" fill="#01609b" d="M 129.5,444.5 C 134.167,444.5 138.833,444.5 143.5,444.5C 143.5,461.833 143.5,479.167 143.5,496.5C 138.5,496.5 133.5,496.5 128.5,496.5C 128.326,479.152 128.659,461.819 129.5,444.5 Z"/></g>
<g><path style="opacity:0.939" fill="#01609b" d="M 272.5,444.5 C 283.172,444.333 293.839,444.5 304.5,445C 315.285,448.732 319.118,456.232 316,467.5C 314.221,471.612 311.388,474.778 307.5,477C 311.625,483.416 315.625,489.916 319.5,496.5C 314.533,497.662 309.533,497.829 304.5,497C 300.959,490.751 297.293,484.584 293.5,478.5C 290.914,477.52 288.247,477.187 285.5,477.5C 285.5,483.833 285.5,490.167 285.5,496.5C 280.833,496.5 276.167,496.5 271.5,496.5C 271.326,479.152 271.659,461.819 272.5,444.5 Z M 285.5,455.5 C 290.179,455.334 294.845,455.501 299.5,456C 303.747,460.163 303.414,463.829 298.5,467C 294.179,467.499 289.846,467.666 285.5,467.5C 285.5,463.5 285.5,459.5 285.5,455.5 Z"/></g>
<g><path style="opacity:0.927" fill="#01609b" d="M 344.5,444.5 C 364.851,442.191 375.851,451.191 377.5,471.5C 375.836,492.518 364.502,501.351 343.5,498C 331.216,493.638 325.216,484.805 325.5,471.5C 325.357,457.683 331.69,448.683 344.5,444.5 Z M 349.5,455.5 C 358.986,456.41 363.319,461.744 362.5,471.5C 362.659,476.189 361.493,480.522 359,484.5C 346.749,489.775 340.582,485.609 340.5,472C 339.778,464.265 342.778,458.765 349.5,455.5 Z"/></g>
<g><path style="opacity:0.945" fill="#01609b" d="M 388.5,445.5 C 399.505,445.333 410.505,445.5 421.5,446C 431.773,449.384 434.939,456.217 431,466.5C 429.363,468.81 427.196,470.31 424.5,471C 433.474,475.298 435.974,482.132 432,491.5C 429.9,494.467 427.066,496.3 423.5,497C 411.505,497.5 399.505,497.667 387.5,497.5C 387.326,480.152 387.659,462.819 388.5,445.5 Z M 401.5,455.5 C 406.267,455.191 410.934,455.691 415.5,457C 418.418,460.472 418.085,463.472 414.5,466C 410.179,466.499 405.846,466.666 401.5,466.5C 401.5,462.833 401.5,459.167 401.5,455.5 Z M 401.5,476.5 C 406.998,476.068 412.331,476.735 417.5,478.5C 420.107,481.563 419.774,484.396 416.5,487C 411.511,487.499 406.511,487.666 401.5,487.5C 401.5,483.833 401.5,480.167 401.5,476.5 Z"/></g>
</svg>
