<?xml version="1.0" encoding="UTF-8"?>
<!DOCTYPE svg PUBLIC "-//W3C//DTD SVG 1.1//EN" "http://www.w3.org/Graphics/SVG/1.1/DTD/svg11.dtd">
<svg xmlns="http://www.w3.org/2000/svg" version="1.1" width="92px" height="92px" style="shape-rendering:geometricPrecision; text-rendering:geometricPrecision; image-rendering:optimizeQuality; fill-rule:evenodd; clip-rule:evenodd" xmlns:xlink="http://www.w3.org/1999/xlink">
<g><path style="opacity:1" fill="#fbfbfb" d="M -0.5,-0.5 C 30.1667,-0.5 60.8333,-0.5 91.5,-0.5C 91.5,30.1667 91.5,60.8333 91.5,91.5C 60.8333,91.5 30.1667,91.5 -0.5,91.5C -0.5,60.8333 -0.5,30.1667 -0.5,-0.5 Z"/></g>
<g><path style="opacity:1" fill="#1f1c1d" d="M 44.5,3.5 C 55.2753,9.39061 65.9419,15.5573 76.5,22C 81.2279,24.2219 81.5613,26.8886 77.5,30C 69.0341,34.9686 60.7008,40.1353 52.5,45.5C 55.6542,48.1588 59.1542,50.1588 63,51.5C 67.8421,49.6612 72.3421,47.1612 76.5,44C 77.7932,43.51 79.1266,43.3433 80.5,43.5C 80.6664,51.1739 80.4997,58.8406 80,66.5C 68.4167,73.3744 56.9167,80.3744 45.5,87.5C 34.0833,80.3744 22.5833,73.3744 11,66.5C 10.3333,52.5 10.3333,38.5 11,24.5C 22.4835,17.8505 33.6501,10.8505 44.5,3.5 Z"/></g>
<g><path style="opacity:1" fill="#f17f13" d="M 44.5,8.5 C 54.65,13.7406 64.3167,19.7406 73.5,26.5C 64.1667,32.5 54.8333,38.5 45.5,44.5C 36.1667,38.5 26.8333,32.5 17.5,26.5C 26.5178,20.4742 35.5178,14.4742 44.5,8.5 Z"/></g>
<g><path style="opacity:1" fill="#f7f7f7" d="M 14.5,30.5 C 22.4825,35.4733 30.4825,40.4733 38.5,45.5C 30.582,50.3752 22.7486,55.3752 15,60.5C 14.5002,50.5056 14.3335,40.5056 14.5,30.5 Z"/></g>
<g><path style="opacity:1" fill="#f8f8f8" d="M 41.5,48.5 C 47.8569,48.2376 53.5236,50.4043 58.5,55C 53.9232,58.5397 49.0898,61.7064 44,64.5C 43.8295,69.8642 43.3295,75.1975 42.5,80.5C 33.9607,75.4025 25.6273,70.0691 17.5,64.5C 25.8127,59.4998 33.8127,54.1665 41.5,48.5 Z"/></g>
<g><path style="opacity:1" fill="#f6f6f6" d="M 75.5,49.5 C 76.6484,53.9811 76.8151,58.6478 76,63.5C 66.9171,69.292 57.7504,74.9587 48.5,80.5C 47.3391,76.2047 47.1725,71.8713 48,67.5C 57.3422,61.637 66.5089,55.637 75.5,49.5 Z"/></g>
</svg>
