<?xml version="1.0" encoding="UTF-8"?>
<!DOCTYPE svg PUBLIC "-//W3C//DTD SVG 1.1//EN" "http://www.w3.org/Graphics/SVG/1.1/DTD/svg11.dtd">
<svg xmlns="http://www.w3.org/2000/svg" version="1.1" width="64px" height="62px" style="shape-rendering:geometricPrecision; text-rendering:geometricPrecision; image-rendering:optimizeQuality; fill-rule:evenodd; clip-rule:evenodd" xmlns:xlink="http://www.w3.org/1999/xlink">
<g><path style="opacity:1" fill="#dedfdf" d="M 19.5,-0.5 C 27.5,-0.5 35.5,-0.5 43.5,-0.5C 47.6088,2.06559 51.6088,4.89892 55.5,8C 58.0885,11.6907 60.7552,15.1907 63.5,18.5C 63.5,26.1667 63.5,33.8333 63.5,41.5C 60.4035,48.4919 55.7368,54.3253 49.5,59C 46.8091,59.1558 44.4758,59.9891 42.5,61.5C 34.5,61.5 26.5,61.5 18.5,61.5C 18.5,60.5 18.5,59.5 18.5,58.5C 10.0305,56.8678 4.53049,51.8678 2,43.5C -1.60291,29.8389 0.897086,17.5056 9.5,6.5C 12.8746,4.10895 16.2079,1.77562 19.5,-0.5 Z"/></g>
<g><path style="opacity:1" fill="#fcfcfc" d="M 43.5,-0.5 C 50.1667,-0.5 56.8333,-0.5 63.5,-0.5C 63.5,5.83333 63.5,12.1667 63.5,18.5C 60.7552,15.1907 58.0885,11.6907 55.5,8C 51.6088,4.89892 47.6088,2.06559 43.5,-0.5 Z"/></g>
<g><path style="opacity:1" fill="#b9b4a9" d="M 42.5,4.5 C 34.8223,5.75062 28.6557,9.41729 24,15.5C 23.4163,18.2567 23.7496,20.9234 25,23.5C 27.079,27.9926 29.4123,32.326 32,36.5C 33.7112,44.2996 30.5445,48.633 22.5,49.5C 21.6856,34.1812 21.3523,18.8479 21.5,3.5C 24.5256,1.98143 27.8589,1.31477 31.5,1.5C 34.5319,1.5973 37.5319,1.93063 40.5,2.5C 41.7133,2.74716 42.38,3.41383 42.5,4.5 Z"/></g>
<g><path style="opacity:1" fill="#b1faf5" d="M 42.5,4.5 C 44.8984,4.25939 46.8984,4.92606 48.5,6.5C 47.7095,7.40128 46.7095,8.06795 45.5,8.5C 44.391,8.55688 43.391,8.89022 42.5,9.5C 40.6316,10.2632 38.9649,11.2632 37.5,12.5C 34.6111,13.9393 32.9444,16.2726 32.5,19.5C 32.8759,23.3103 34.2092,26.6436 36.5,29.5C 41.0703,35.7425 42.0703,42.4091 39.5,49.5C 36.7972,51.1807 34.1305,52.8474 31.5,54.5C 26.974,54.8969 22.974,56.2303 19.5,58.5C 19.1667,58.5 18.8333,58.5 18.5,58.5C 15.8122,56.4789 13.4789,54.1456 11.5,51.5C 12.1667,51.5 12.8333,51.5 13.5,51.5C 16.6296,51.3003 19.6296,50.6336 22.5,49.5C 30.5445,48.633 33.7112,44.2996 32,36.5C 29.4123,32.326 27.079,27.9926 25,23.5C 23.7496,20.9234 23.4163,18.2567 24,15.5C 28.6557,9.41729 34.8223,5.75062 42.5,4.5 Z"/></g>
<g><path style="opacity:1" fill="#c9c2b4" d="M 21.5,3.5 C 21.3523,18.8479 21.6856,34.1812 22.5,49.5C 19.6296,50.6336 16.6296,51.3003 13.5,51.5C 13.5,37.1667 13.5,22.8333 13.5,8.5C 15.4844,5.83612 18.1511,4.16945 21.5,3.5 Z"/></g>
<g><path style="opacity:1" fill="#03a3bd" d="M 48.5,6.5 C 49.5,6.83333 50.1667,7.5 50.5,8.5C 49.8353,11.3138 49.502,14.3138 49.5,17.5C 49.9395,29.3376 50.6062,41.0042 51.5,52.5C 50.8333,53.8333 49.8333,54.8333 48.5,55.5C 46.7836,40.1691 45.7836,24.5024 45.5,8.5C 46.7095,8.06795 47.7095,7.40128 48.5,6.5 Z"/></g>
<g><path style="opacity:1" fill="#06afc4" d="M 45.5,8.5 C 45.7836,24.5024 46.7836,40.1691 48.5,55.5C 46.8185,57.0075 44.8185,58.0075 42.5,58.5C 42.5,42.1667 42.5,25.8333 42.5,9.5C 43.391,8.89022 44.391,8.55688 45.5,8.5 Z"/></g>
<g><path style="opacity:1" fill="#0eb8ca" d="M 42.5,9.5 C 42.5,25.8333 42.5,42.1667 42.5,58.5C 41.791,59.404 40.791,59.7373 39.5,59.5C 39.5,56.1667 39.5,52.8333 39.5,49.5C 42.0703,42.4091 41.0703,35.7425 36.5,29.5C 37.4889,24.0247 37.8222,18.358 37.5,12.5C 38.9649,11.2632 40.6316,10.2632 42.5,9.5 Z"/></g>
<g><path style="opacity:1" fill="#0195b4" d="M 50.5,8.5 C 52.5,9.83333 54.1667,11.5 55.5,13.5C 54.1667,25.1667 54.1667,36.8333 55.5,48.5C 54.5,50.1667 53.1667,51.5 51.5,52.5C 50.6062,41.0042 49.9395,29.3376 49.5,17.5C 49.502,14.3138 49.8353,11.3138 50.5,8.5 Z"/></g>
<g><path style="opacity:1" fill="#d5cfbe" d="M 13.5,8.5 C 13.5,22.8333 13.5,37.1667 13.5,51.5C 12.8333,51.5 12.1667,51.5 11.5,51.5C 5.23937,46.0958 2.23937,39.0958 2.5,30.5C 2.50664,21.1527 6.1733,13.8193 13.5,8.5 Z"/></g>
<g><path style="opacity:1" fill="#1cc6d2" d="M 37.5,12.5 C 37.8222,18.358 37.4889,24.0247 36.5,29.5C 34.2092,26.6436 32.8759,23.3103 32.5,19.5C 32.9444,16.2726 34.6111,13.9393 37.5,12.5 Z"/></g>
<g><path style="opacity:1" fill="#1589ac" d="M 55.5,13.5 C 62.0922,22.6889 63.2588,32.6889 59,43.5C 57.9702,45.3464 56.8036,47.0131 55.5,48.5C 54.1667,36.8333 54.1667,25.1667 55.5,13.5 Z"/></g>
<g><path style="opacity:1" fill="#fbfbfb" d="M -0.5,-0.5 C 6.16667,-0.5 12.8333,-0.5 19.5,-0.5C 16.2079,1.77562 12.8746,4.10895 9.5,6.5C 0.897086,17.5056 -1.60291,29.8389 2,43.5C 4.53049,51.8678 10.0305,56.8678 18.5,58.5C 18.5,59.5 18.5,60.5 18.5,61.5C 12.1667,61.5 5.83333,61.5 -0.5,61.5C -0.5,40.8333 -0.5,20.1667 -0.5,-0.5 Z"/></g>
<g><path style="opacity:1" fill="#fcfcfc" d="M 63.5,41.5 C 63.5,48.1667 63.5,54.8333 63.5,61.5C 56.5,61.5 49.5,61.5 42.5,61.5C 44.4758,59.9891 46.8091,59.1558 49.5,59C 55.7368,54.3253 60.4035,48.4919 63.5,41.5 Z"/></g>
<g><path style="opacity:1" fill="#19c6d3" d="M 39.5,49.5 C 39.5,52.8333 39.5,56.1667 39.5,59.5C 37.0521,60.4731 34.3854,60.8064 31.5,60.5C 31.5,58.5 31.5,56.5 31.5,54.5C 34.1305,52.8474 36.7972,51.1807 39.5,49.5 Z"/></g>
<g><path style="opacity:1" fill="#21e0e4" d="M 31.5,54.5 C 31.5,56.5 31.5,58.5 31.5,60.5C 27.3425,60.6684 23.3425,60.0017 19.5,58.5C 22.974,56.2303 26.974,54.8969 31.5,54.5 Z"/></g>
</svg>
